<svg width="24" height="24" viewBox="0 0 24 24" fill="none" xmlns="http://www.w3.org/2000/svg">
<path d="M10.577 8.704C11.21 7.568 11.527 7 12 7C12.473 7 12.79 7.568 13.423 8.704L13.587 8.998C13.767 9.321 13.857 9.482 13.997 9.588C14.137 9.695 14.313 9.735 14.662 9.814L14.98 9.886C16.21 10.164 16.825 10.303 16.971 10.774C17.118 11.244 16.698 11.734 15.86 12.715L15.643 12.969C15.405 13.247 15.286 13.387 15.233 13.559C15.178 13.731 15.196 13.917 15.233 14.289L15.265 14.627C15.392 15.935 15.455 16.589 15.072 16.88C14.689 17.17 14.114 16.906 12.962 16.376L12.664 16.238C12.337 16.088 12.174 16.012 12 16.012C11.827 16.012 11.663 16.088 11.336 16.238L11.038 16.376C9.886 16.906 9.311 17.171 8.928 16.88C8.545 16.59 8.608 15.935 8.735 14.627L8.767 14.289C8.804 13.917 8.822 13.731 8.767 13.559C8.714 13.387 8.595 13.247 8.357 12.969L8.14 12.715C7.302 11.735 6.882 11.245 7.029 10.774C7.175 10.304 7.789 10.164 9.019 9.886L9.338 9.814C9.688 9.734 9.862 9.695 10.003 9.589C10.143 9.482 10.233 9.321 10.413 8.999L10.577 8.704Z" fill="currentColor"/>
<path opacity="0.8" fill-rule="evenodd" clip-rule="evenodd" d="M12 1.25C12.1989 1.25 12.3897 1.32902 12.5303 1.46967C12.671 1.61032 12.75 1.80109 12.75 2V4C12.75 4.19891 12.671 4.38968 12.5303 4.53033C12.3897 4.67098 12.1989 4.75 12 4.75C11.8011 4.75 11.6103 4.67098 11.4697 4.53033C11.329 4.38968 11.25 4.19891 11.25 4V2C11.25 1.80109 11.329 1.61032 11.4697 1.46967C11.6103 1.32902 11.8011 1.25 12 1.25ZM1.25 12C1.25 11.8011 1.32902 11.6103 1.46967 11.4697C1.61032 11.329 1.80109 11.25 2 11.25H4C4.19891 11.25 4.38968 11.329 4.53033 11.4697C4.67098 11.6103 4.75 11.8011 4.75 12C4.75 12.1989 4.67098 12.3897 4.53033 12.5303C4.38968 12.671 4.19891 12.75 4 12.75H2C1.80109 12.75 1.61032 12.671 1.46967 12.5303C1.32902 12.3897 1.25 12.1989 1.25 12ZM19.25 12C19.25 11.8011 19.329 11.6103 19.4697 11.4697C19.6103 11.329 19.8011 11.25 20 11.25H22C22.1989 11.25 22.3897 11.329 22.5303 11.4697C22.671 11.6103 22.75 11.8011 22.75 12C22.75 12.1989 22.671 12.3897 22.5303 12.5303C22.3897 12.671 22.1989 12.75 22 12.75H20C19.8011 12.75 19.6103 12.671 19.4697 12.5303C19.329 12.3897 19.25 12.1989 19.25 12ZM12 19.25C12.1989 19.25 12.3897 19.329 12.5303 19.4697C12.671 19.6103 12.75 19.8011 12.75 20V22C12.75 22.1989 12.671 22.3897 12.5303 22.5303C12.3897 22.671 12.1989 22.75 12 22.75C11.8011 22.75 11.6103 22.671 11.4697 22.5303C11.329 22.3897 11.25 22.1989 11.25 22V20C11.25 19.8011 11.329 19.6103 11.4697 19.4697C11.6103 19.329 11.8011 19.25 12 19.25Z" fill="currentColor"/>
<path opacity="0.5" d="M18.53 5.47001C18.6704 5.61064 18.7493 5.80126 18.7493 6.00001C18.7493 6.19876 18.6704 6.38939 18.53 6.53001L18.187 6.87401C18.0455 7.01056 17.856 7.08607 17.6593 7.08427C17.4627 7.08247 17.2746 7.00351 17.1356 6.86438C16.9966 6.72526 16.9179 6.53711 16.9162 6.34046C16.9146 6.14381 16.9903 5.9544 17.127 5.81301L17.47 5.47001C17.6106 5.32956 17.8012 5.25067 18 5.25067C18.1987 5.25067 18.3894 5.32956 18.53 5.47001ZM5.47 5.47001C5.61062 5.32956 5.80125 5.25067 6 5.25067C6.19875 5.25067 6.38937 5.32956 6.53 5.47001L6.874 5.81301C7.01055 5.95453 7.08606 6.14401 7.08426 6.34066C7.08246 6.53731 7.00349 6.72538 6.86437 6.86437C6.72525 7.00337 6.5371 7.08215 6.34045 7.08377C6.1438 7.08538 5.95438 7.0097 5.813 6.87301L5.47 6.53001C5.32955 6.38939 5.25066 6.19876 5.25066 6.00001C5.25066 5.80126 5.32955 5.61064 5.47 5.47001ZM6.873 17.127C7.01345 17.2676 7.09234 17.4583 7.09234 17.657C7.09234 17.8558 7.01345 18.0464 6.873 18.187L6.53 18.53C6.38782 18.6625 6.19977 18.7346 6.00547 18.7312C5.81117 18.7278 5.62579 18.649 5.48837 18.5116C5.35096 18.3742 5.27225 18.1888 5.26882 17.9945C5.26539 17.8002 5.33752 17.6122 5.47 17.47L5.813 17.127C5.95362 16.9866 6.14425 16.9077 6.343 16.9077C6.54175 16.9077 6.73237 16.9866 6.873 17.127ZM17.127 17.127C17.2676 16.9866 17.4582 16.9077 17.657 16.9077C17.8557 16.9077 18.0464 16.9866 18.187 17.127L18.53 17.47C18.6625 17.6122 18.7346 17.8002 18.7312 17.9945C18.7277 18.1888 18.649 18.3742 18.5116 18.5116C18.3742 18.649 18.1888 18.7278 17.9945 18.7312C17.8002 18.7346 17.6122 18.6625 17.47 18.53L17.127 18.187C16.9865 18.0464 16.9077 17.8558 16.9077 17.657C16.9077 17.4583 16.9865 17.2676 17.127 17.127Z" fill="currentColor"/>
</svg>
